<?xml version="1.0" encoding="UTF-8" standalone="no"?>
<svg width="19px" height="19px" viewBox="0 0 19 19" version="1.1" xmlns="http://www.w3.org/2000/svg" xmlns:xlink="http://www.w3.org/1999/xlink" xmlns:sketch="http://www.bohemiancoding.com/sketch/ns">
    <!-- Generator: Sketch 3.3.3 (12072) - http://www.bohemiancoding.com/sketch -->
    <title>Rectangle 678 + Fill 2204</title>
    <desc>Created with Sketch.</desc>
    <defs></defs>
    <g id="UI" stroke="none" stroke-width="1" fill="none" fill-rule="evenodd" sketch:type="MSPage">
        <g id="UX-Profile-Copy-3" sketch:type="MSArtboardGroup" transform="translate(-813.000000, -429.000000)">
            <g id="Rectangle-678-+-rebase-+-react-app-Copy" sketch:type="MSLayerGroup" transform="translate(813.156250, 427.500000)">
                <g id="Rectangle-678-+-Fill-2204" transform="translate(0.000000, 2.000000)" sketch:type="MSShapeGroup">
                    <rect id="Rectangle-678" fill="#40B89E" x="0.65625" y="0" width="18" height="18" rx="4"></rect>
                    <g id="Fill-2204" transform="translate(4.843750, 3.500000)" fill="#F5F7FA">
                        <path d="M9.76178274,2.52444 L8.40761607,0.747516923 C8.33216964,0.648516923 8.20952083,0.648516923 8.1340744,0.747516923 L3.43472917,6.91394769 L2.21713988,5.31674769 C2.14169345,5.21774769 2.01904464,5.21774769 1.94359821,5.31674769 L0.589431548,7.09367077 C0.513985119,7.19267077 0.513985119,7.35360923 0.589431548,7.45260923 L3.29776488,11.0064554 C3.33568155,11.0562092 3.38520536,11.0810862 3.43472917,11.0810862 C3.48425298,11.0810862 3.53338988,11.0562092 3.57130655,11.0064554 L9.76178274,2.88337846 C9.83722917,2.78437846 9.83722917,2.62344 9.76178274,2.52444"></path>
                    </g>
                </g>
            </g>
        </g>
    </g>
</svg>