<?xml version="1.0" encoding="UTF-8" standalone="no"?>
<svg width="16px" height="15px" viewBox="0 0 16 15" version="1.1" xmlns="http://www.w3.org/2000/svg" xmlns:xlink="http://www.w3.org/1999/xlink" xmlns:sketch="http://www.bohemiancoding.com/sketch/ns">
    <!-- Generator: Sketch 3.3.3 (12072) - http://www.bohemiancoding.com/sketch -->
    <title>Fill 2330</title>
    <desc>Created with Sketch.</desc>
    <defs></defs>
    <g id="UI" stroke="none" stroke-width="1" fill="none" fill-rule="evenodd" sketch:type="MSPage">
        <g id="Dev-Offered-Tickets" sketch:type="MSArtboardGroup" transform="translate(-679.000000, -22.000000)" fill="#C4C7C9">
            <g id="Fill-2330" sketch:type="MSLayerGroup" transform="translate(679.000000, 22.000000)">
                <path d="M11.1862391,10.0473913 C11.313413,10.1752174 11.3127609,10.3813043 11.185587,10.5084783 C11.1216739,10.5723913 11.0381957,10.6036957 10.9553696,10.6036957 C10.8718913,10.6036957 10.7877609,10.5717391 10.7245,10.5078261 L8.19276087,7.96630435 L5.65123913,10.4973913 C5.58797826,10.5613043 5.5045,10.5926087 5.42167391,10.5926087 C5.33819565,10.5926087 5.25406522,10.5613043 5.19015217,10.4967391 C5.06363043,10.3695652 5.06363043,10.1628261 5.19145652,10.0356522 L7.73232609,7.50456522 L5.20123913,4.96304348 C5.07406522,4.83521739 5.07406522,4.62913043 5.2018913,4.50195652 C5.32906522,4.37413043 5.53580435,4.37478261 5.66297826,4.5026087 L8.19471739,7.04413043 L10.735587,4.51304348 C10.863413,4.38521739 11.0701522,4.38521739 11.1966739,4.51369565 C11.3238478,4.64086957 11.3238478,4.8476087 11.1960217,4.97478261 L8.6545,7.50586957 L11.1862391,10.0473913 Z M8.19406522,14.6791304 L8.19406522,14.6784783 L8.19406522,14.6791304 Z M8.19341304,0.0052173913 C4.06645652,0.0052173913 0.701891304,3.3626087 0.694065217,7.49086957 C0.690152174,9.49369565 1.46623913,11.3791304 2.88015217,12.7982609 C4.29406522,14.2173913 6.17623913,15.0013043 8.17971739,15.0052174 L8.19406522,15.0052174 C12.3216739,15.0052174 15.6862391,11.6471739 15.6940652,7.51956522 C15.7018913,3.38413043 12.3438478,0.0130434783 8.19341304,0.0052173913 L8.19341304,0.0052173913 Z" sketch:type="MSShapeGroup"></path>
            </g>
        </g>
    </g>
</svg>