<svg width="25px" height="24px" viewBox="0 0 25 24">
    <g id="UI" stroke="none" stroke-width="1" fill="none" fill-rule="evenodd">
        <g transform="translate(-1354.000000, -117.000000)" fill="#CBD0D4">
            <g transform="translate(325.000000, 70.500000)">
                <g transform="translate(1029.000000, 46.243000)">
                    <path d="M17.0308,9.0068 C17.5068,9.0068 17.9728,9.0518 18.4298,9.1218 C18.4948,8.7428 18.5308,8.3498 18.5308,7.9418 C18.5308,3.8418 14.4938,0.5068 9.5308,0.5068 C4.5678,0.5068 0.5308,3.8418 0.5308,7.9418 C0.5308,9.9028 1.3858,11.7678 2.8908,13.1188 L1.0968,16.2588 C0.9908,16.4438 1.0138,16.6738 1.1538,16.8348 C1.2508,16.9458 1.3888,17.0068 1.5308,17.0068 C1.5928,17.0068 1.6568,16.9948 1.7168,16.9708 L6.5558,15.0348 C6.9908,15.1588 7.4428,15.2528 7.9028,15.3158 C7.9258,15.3188 7.9678,15.3118 7.9788,15.3198 C8.0538,15.3198 8.2978,15.3178 8.6568,15.2978 C9.3358,11.7838 12.8898,9.0068 17.0308,9.0068" id="Fill-1121"></path>
                    <path d="M17.0308,10.0068 C12.9658,10.0068 9.5308,12.9838 9.5308,16.5068 C9.5308,19.8628 12.4088,22.7308 15.9648,23.0798 C15.9668,23.0798 15.9688,23.0798 15.9708,23.0808 C16.1198,23.0948 16.2728,23.0968 16.4248,23.1028 C16.5138,23.1058 16.6008,23.1148 16.6908,23.1148 L16.7068,23.1148 C16.9378,23.1138 17.1678,23.1028 17.3968,23.0808 C17.4808,23.0728 17.5638,23.0568 17.6478,23.0458 C17.7978,23.0268 17.9468,23.0078 18.0948,22.9788 C18.1898,22.9608 18.2838,22.9348 18.3788,22.9128 C18.5138,22.8808 18.6498,22.8498 18.7838,22.8108 C18.8798,22.7818 18.9748,22.7468 19.0708,22.7148 C19.2288,22.6608 19.3878,22.6098 19.5428,22.5458 L19.7238,22.6128 L23.3558,23.9748 C23.4128,23.9968 23.4718,24.0068 23.5308,24.0068 C23.6698,24.0068 23.8058,23.9488 23.9028,23.8408 C24.0398,23.6888 24.0698,23.4668 23.9778,23.2838 L22.8188,20.9648 L22.6528,20.6338 C22.7788,20.5208 22.8938,20.4018 23.0078,20.2818 C23.0618,20.2258 23.1138,20.1678 23.1648,20.1098 C23.2478,20.0138 23.3288,19.9178 23.4048,19.8188 C23.4398,19.7738 23.4748,19.7278 23.5078,19.6818 C23.5948,19.5618 23.6768,19.4398 23.7518,19.3148 C23.7698,19.2848 23.7888,19.2558 23.8058,19.2258 C23.8898,19.0818 23.9668,18.9348 24.0368,18.7848 C24.0438,18.7688 24.0518,18.7528 24.0598,18.7368 C24.1318,18.5758 24.1968,18.4108 24.2528,18.2438 C24.2558,18.2338 24.2598,18.2238 24.2628,18.2138 C24.3178,18.0468 24.3638,17.8758 24.4018,17.7018 C24.4048,17.6878 24.4088,17.6748 24.4118,17.6608 C24.4468,17.4968 24.4718,17.3288 24.4908,17.1588 C24.4938,17.1348 24.4988,17.1118 24.5008,17.0878 C24.5208,16.8968 24.5308,16.7028 24.5308,16.5068 C24.5308,12.9838 21.0958,10.0068 17.0308,10.0068" id="Fill-1122"></path>
                </g>
            </g>
        </g>
    </g>
</svg>
