<?xml version="1.0" encoding="UTF-8" standalone="no"?>
<svg width="25px" height="21px" viewBox="0 0 25 21" version="1.1" xmlns="http://www.w3.org/2000/svg" xmlns:xlink="http://www.w3.org/1999/xlink" xmlns:sketch="http://www.bohemiancoding.com/sketch/ns">
    <!-- Generator: Sketch 3.3.3 (12072) - http://www.bohemiancoding.com/sketch -->
    <title>Fill 2682</title>
    <desc>Created with Sketch.</desc>
    <defs></defs>
    <g id="UI" stroke="none" stroke-width="1" fill="none" fill-rule="evenodd" sketch:type="MSPage">
        <g id="Dev-Set-Ticket-Price" sketch:type="MSArtboardGroup" transform="translate(-40.000000, -415.000000)" fill="#FFFFFF">
            <g id="Sidebar" sketch:type="MSLayerGroup">
                <g id="Fill-2682" transform="translate(41.000000, 415.000000)" sketch:type="MSShapeGroup">
                    <path d="M16.4308,6.3066 C16.3328,6.4376 16.1828,6.5066 16.0308,6.5066 C15.9258,6.5066 15.8208,6.4736 15.7308,6.4066 C14.3938,5.4026 12.7328,4.9106 11.0638,5.0216 C10.7918,5.0396 10.5508,4.8316 10.5318,4.5566 C10.5138,4.2806 10.7228,4.0426 10.9978,4.0246 C12.9098,3.8976 14.8038,4.4596 16.3308,5.6066 C16.5518,5.7726 16.5968,6.0856 16.4308,6.3066 M5.5308,9.5066 C4.9798,9.5066 4.5308,9.0576 4.5308,8.5066 C4.5308,7.9546 4.9798,7.5066 5.5308,7.5066 C6.0818,7.5066 6.5308,7.9546 6.5308,8.5066 C6.5308,9.0576 6.0818,9.5066 5.5308,9.5066 M23.0308,7.5066 C22.7548,7.5066 22.5308,7.7306 22.5308,8.0066 C22.5308,8.6696 22.0948,9.2276 21.4958,9.4256 C21.1418,5.0096 16.8138,1.5066 11.5308,1.5066 C10.8028,1.5066 10.0588,1.5796 9.3138,1.7256 C8.5708,0.6566 7.3438,0.0066 6.0308,0.0066 C5.3318,0.0066 4.6408,0.1926 4.0308,0.5456 C3.8758,0.6356 3.7808,0.8006 3.7808,0.9786 C3.7808,1.1576 3.8758,1.3216 4.0308,1.4116 C4.7308,1.8166 5.2418,2.4976 5.4388,3.2736 C3.4658,4.5646 2.1228,6.4396 1.6868,8.5066 L0.0308,8.5066 C-0.2452,8.5066 -0.4692,8.7306 -0.4692,9.0066 L-0.4692,13.0066 C-0.4692,13.2826 -0.2452,13.5066 0.0308,13.5066 L2.4208,13.5066 C3.3828,15.3196 5.0268,16.7396 7.0308,17.5976 L7.0308,20.5066 C7.0308,20.7826 7.2548,21.0066 7.5308,21.0066 C7.8078,21.0066 8.0308,20.7826 8.0308,20.5066 L8.0308,17.9726 C9.1288,18.3196 10.3098,18.5066 11.5308,18.5066 C12.7638,18.5066 13.9398,18.3066 15.0308,17.9586 L15.0308,20.5066 C15.0308,20.7826 15.2548,21.0066 15.5308,21.0066 C15.8078,21.0066 16.0308,20.7826 16.0308,20.5066 L16.0308,17.5866 C19.1378,16.2486 21.3098,13.5756 21.5038,10.4586 C22.6568,10.2366 23.5308,9.2236 23.5308,8.0066 C23.5308,7.7306 23.3078,7.5066 23.0308,7.5066"></path>
                </g>
            </g>
        </g>
    </g>
</svg>