<?xml version="1.0" encoding="UTF-8" standalone="no"?>
<svg width="25px" height="24px" viewBox="0 0 25 24" version="1.1" xmlns="http://www.w3.org/2000/svg" xmlns:xlink="http://www.w3.org/1999/xlink" xmlns:sketch="http://www.bohemiancoding.com/sketch/ns">
    <!-- Generator: Sketch 3.3.3 (12072) - http://www.bohemiancoding.com/sketch -->
    <title>Fill 2771</title>
    <desc>Created with Sketch.</desc>
    <defs></defs>
    <g id="UI" stroke="none" stroke-width="1" fill="none" fill-rule="evenodd" sketch:type="MSPage">
        <g id="Dev-Set-Ticket-Price" sketch:type="MSArtboardGroup" transform="translate(-56.000000, -444.000000)" fill="#FFFFFF">
            <g id="Sidebar" sketch:type="MSLayerGroup">
                <g id="Fill-2771" transform="translate(56.000000, 444.000000)" sketch:type="MSShapeGroup">
                    <path d="M21.5309,13.0063 L3.5309,13.0063 L3.5309,9.0063 L7.0309,9.0063 C7.1829,9.0063 7.3259,8.9373 7.4219,8.8193 L8.9079,6.9603 L10.5739,10.7093 C10.6439,10.8673 10.7909,10.9783 10.9619,11.0013 C10.9849,11.0053 11.0079,11.0063 11.0309,11.0063 C11.1789,11.0063 11.3199,10.9413 11.4149,10.8263 L13.5649,8.2473 L15.1779,9.8603 C15.2829,9.9643 15.4289,10.0183 15.5749,10.0043 C15.7219,9.9913 15.8559,9.9143 15.9409,9.7933 L19.4409,4.7933 C19.5989,4.5673 19.5439,4.2553 19.3179,4.0963 C19.0919,3.9383 18.7799,3.9933 18.6209,4.2193 L15.4629,8.7313 L13.8849,7.1523 C13.7859,7.0533 13.6489,6.9993 13.5089,7.0063 C13.3679,7.0133 13.2369,7.0783 13.1469,7.1863 L11.1609,9.5683 L9.4879,5.8033 C9.4169,5.6443 9.2679,5.5323 9.0949,5.5103 C8.9179,5.4863 8.7489,5.5583 8.6399,5.6943 L6.7909,8.0063 L3.5309,8.0063 L3.5309,3.0063 L21.5309,3.0063 L21.5309,13.0063 Z M24.0309,0.0063 L1.0309,0.0063 C0.7549,0.0063 0.5309,0.2303 0.5309,0.5063 L0.5309,15.5063 C0.5309,15.7823 0.7549,16.0063 1.0309,16.0063 L12.0309,16.0063 L12.0309,18.2993 L7.1779,23.1523 C6.9819,23.3483 6.9819,23.6643 7.1779,23.8603 C7.3729,24.0553 7.6889,24.0553 7.8849,23.8603 L12.5309,19.2133 L17.1779,23.8603 C17.2749,23.9573 17.4029,24.0063 17.5309,24.0063 C17.6589,24.0063 17.7869,23.9573 17.8849,23.8603 C18.0799,23.6643 18.0799,23.3483 17.8849,23.1523 L13.0309,18.2993 L13.0309,16.0063 L24.0309,16.0063 C24.3069,16.0063 24.5309,15.7823 24.5309,15.5063 L24.5309,0.5063 C24.5309,0.2303 24.3069,0.0063 24.0309,0.0063 L24.0309,0.0063 Z"></path>
                </g>
            </g>
        </g>
    </g>
</svg>