<?xml version="1.0" encoding="UTF-8" standalone="no"?>
<svg width="1200px" height="900px" viewBox="0 0 1200 900" version="1.1" xmlns="http://www.w3.org/2000/svg" xmlns:xlink="http://www.w3.org/1999/xlink" xmlns:sketch="http://www.bohemiancoding.com/sketch/ns">
    <g fill-rule="evenodd">
        <g id='keyboard' stroke='#DCDFE0' fill='#F7FAFC' transform="rotate(12.000000) translate(180, 500)">
            <rect stroke='none' fill="#DCDFE0" x="0" y="0" width="485" height="160" rx="12"></rect>
            <rect x="6.04361371" y="6.03773585" width="24.1744548" height="14.3396226" rx="4"></rect>
            <rect x="299.158879" y="24.1509434" width="23.4190031" height="22.6415094" rx="4"></rect>
            <rect x="325.599688" y="24.1509434" width="23.4190031" height="22.6415094" rx="4"></rect>
            <rect x="352.040498" y="24.1509434" width="37.017134" height="22.6415094" rx="4"></rect>
            <rect x="6.04361371" y="49.8113208" width="37.017134" height="22.6415094" rx="4"></rect>
            <rect x="6.04361371" y="127.54717" width="37.017134" height="26.4150943" rx="4"></rect>
            <rect x="278.761682" y="127.54717" width="37.017134" height="26.4150943" rx="4"></rect>
            <rect x="46.0825545" y="127.54717" width="29.4626168" height="26.4150943" rx="4"></rect>
            <rect x="318.800623" y="127.54717" width="29.4626168" height="26.4150943" rx="4"></rect>
            <rect x="79.3224299" y="127.54717" width="37.017134" height="26.4150943" rx="4"></rect>
            <rect x="352.040498" y="127.54717" width="37.017134" height="26.4150943" rx="4"></rect>
            <rect x="119.361371" y="127.54717" width="156.378505" height="26.4150943" rx="4"></rect>
            <rect x="6.04361371" y="75.4716981" width="43.0607477" height="22.6415094" rx="4"></rect>
            <rect x="6.04361371" y="101.886792" width="56.6588785" height="22.6415094" rx="4"></rect>
            <rect x="272.718069" y="24.1509434" width="23.4190031" height="22.6415094" rx="4"></rect>
            <rect x="245.521807" y="24.1509434" width="23.4190031" height="22.6415094" rx="4"></rect>
            <rect x="219.080997" y="24.1509434" width="23.4190031" height="22.6415094" rx="4"></rect>
            <rect x="192.640187" y="24.1509434" width="23.4190031" height="22.6415094" rx="4"></rect>
            <rect x="166.199377" y="24.1509434" width="23.4190031" height="22.6415094" rx="4"></rect>
            <rect x="139.003115" y="24.1509434" width="23.4190031" height="22.6415094" rx="4"></rect>
            <rect x="112.562305" y="24.1509434" width="23.4190031" height="22.6415094" rx="4"></rect>
            <rect x="86.1214953" y="24.1509434" width="23.4190031" height="22.6415094" rx="4"></rect>
            <rect x="59.6806854" y="24.1509434" width="23.4190031" height="22.6415094" rx="4"></rect>
            <rect x="32.4844237" y="24.1509434" width="23.4190031" height="22.6415094" rx="4"></rect>
            <rect x="6.04361371" y="24.1509434" width="23.4190031" height="22.6415094" rx="4"></rect>
            <rect x="339.197819" y="49.8113208" width="23.4190031" height="22.6415094" rx="4"></rect>
            <rect x="365.638629" y="49.8113208" width="23.4190031" height="22.6415094" rx="4"></rect>
            <rect x="312.757009" y="49.8113208" width="23.4190031" height="22.6415094" rx="4"></rect>
            <rect x="285.560748" y="49.8113208" width="23.4190031" height="22.6415094" rx="4"></rect>
            <rect x="259.119938" y="49.8113208" width="23.4190031" height="22.6415094" rx="4"></rect>
            <rect x="232.679128" y="49.8113208" width="23.4190031" height="22.6415094" rx="4"></rect>
            <rect x="206.238318" y="49.8113208" width="23.4190031" height="22.6415094" rx="4"></rect>
            <rect x="179.042056" y="49.8113208" width="23.4190031" height="22.6415094" rx="4"></rect>
            <rect x="152.601246" y="49.8113208" width="23.4190031" height="22.6415094" rx="4"></rect>
            <rect x="126.160436" y="49.8113208" width="23.4190031" height="22.6415094" rx="4"></rect>
            <rect x="99.7196262" y="49.8113208" width="23.4190031" height="22.6415094" rx="4"></rect>
            <rect x="72.5233645" y="49.8113208" width="23.4190031" height="22.6415094" rx="4"></rect>
            <rect x="46.0825545" y="49.8113208" width="23.4190031" height="22.6415094" rx="4"></rect>
            <rect x="345.996885" y="75.4716981" width="43.0607477" height="22.6415094" rx="4"></rect>
            <rect x="332.398754" y="101.132075" width="56.6588785" height="22.6415094" rx="4"></rect>
            <rect x="319.556075" y="75.4716981" width="23.4190031" height="22.6415094" rx="4"></rect>
            <rect x="292.359813" y="75.4716981" width="23.4190031" height="22.6415094" rx="4"></rect>
            <rect x="265.919003" y="75.4716981" width="23.4190031" height="22.6415094" rx="4"></rect>
            <rect x="239.478193" y="75.4716981" width="23.4190031" height="22.6415094" rx="4"></rect>
            <rect x="213.037383" y="75.4716981" width="23.4190031" height="22.6415094" rx="4"></rect>
            <rect x="185.841121" y="75.4716981" width="23.4190031" height="22.6415094" rx="4"></rect>
            <rect x="159.400312" y="75.4716981" width="23.4190031" height="22.6415094" rx="4"></rect>
            <rect x="132.959502" y="75.4716981" width="23.4190031" height="22.6415094" rx="4"></rect>
            <rect x="106.518692" y="75.4716981" width="23.4190031" height="22.6415094" rx="4"></rect>
            <rect x="79.3224299" y="75.4716981" width="23.4190031" height="22.6415094" rx="4"></rect>
            <rect x="305.957944" y="101.132075" width="23.4190031" height="22.6415094" rx="4"></rect>
            <rect x="278.761682" y="101.132075" width="23.4190031" height="22.6415094" rx="4"></rect>
            <rect x="429.852025" y="104.90566" width="23.4190031" height="22.6415094" rx="4"></rect>
            <rect x="402.655763" y="49.8113208" width="23.4190031" height="22.6415094" rx="4"></rect>
            <rect x="429.852025" y="49.8113208" width="23.4190031" height="22.6415094" rx="4"></rect>
            <rect x="456.292835" y="49.8113208" width="23.4190031" height="22.6415094" rx="4"></rect>
            <rect x="402.655763" y="24.1509434" width="23.4190031" height="22.6415094" rx="4"></rect>
            <rect x="429.852025" y="24.1509434" width="23.4190031" height="22.6415094" rx="4"></rect>
            <rect x="456.292835" y="24.1509434" width="23.4190031" height="22.6415094" rx="4"></rect>
            <rect x="402.655763" y="6.06058038" width="23.4190031" height="14.3396226" rx="4"></rect>
            <rect x="429.852025" y="6.06058038" width="23.4190031" height="14.3396226" rx="4"></rect>
            <rect x="456.292835" y="6.06058038" width="23.4190031" height="14.3396226" rx="4"></rect>
            <rect x="429.852025" y="131.320755" width="23.4190031" height="22.6415094" rx="4"></rect>
            <rect x="456.292835" y="131.320755" width="23.4190031" height="22.6415094" rx="4"></rect>
            <rect x="402.655763" y="131.320755" width="23.4190031" height="22.6415094" rx="4"></rect>
            <rect x="252.320872" y="101.132075" width="23.4190031" height="22.6415094" rx="4"></rect>
            <rect x="225.880062" y="101.132075" width="23.4190031" height="22.6415094" rx="4"></rect>
            <rect x="199.439252" y="101.132075" width="23.4190031" height="22.6415094" rx="4"></rect>
            <rect x="172.242991" y="101.132075" width="23.4190031" height="22.6415094" rx="4"></rect>
            <rect x="145.802181" y="101.132075" width="23.4190031" height="22.6415094" rx="4"></rect>
            <rect x="119.361371" y="101.132075" width="23.4190031" height="22.6415094" rx="4"></rect>
            <rect x="92.9205607" y="101.132075" width="23.4190031" height="22.6415094" rx="4"></rect>
            <rect x="65.7242991" y="101.132075" width="23.4190031" height="22.6415094" rx="4"></rect>
            <rect x="52.8816199" y="75.4716981" width="23.4190031" height="22.6415094" rx="4"></rect>
            <rect x="364.883178" y="6.03773585" width="24.1744548" height="14.3396226" rx="4"></rect>
            <rect x="336.931464" y="6.03773585" width="24.1744548" height="14.3396226" rx="4"></rect>
            <rect x="309.735202" y="6.03773585" width="24.1744548" height="14.3396226" rx="4"></rect>
            <rect x="281.783489" y="6.03773585" width="24.1744548" height="14.3396226" rx="4"></rect>
            <rect x="254.587227" y="6.03773585" width="24.1744548" height="14.3396226" rx="4"></rect>
            <rect x="226.635514" y="6.03773585" width="24.1744548" height="14.3396226" rx="4"></rect>
            <rect x="199.439252" y="6.03773585" width="24.1744548" height="14.3396226" rx="4"></rect>
            <rect x="171.487539" y="6.03773585" width="24.1744548" height="14.3396226" rx="4"></rect>
            <rect x="144.291277" y="6.03773585" width="24.1744548" height="14.3396226" rx="4"></rect>
            <rect x="116.339564" y="6.03773585" width="24.1744548" height="14.3396226" rx="4"></rect>
            <rect x="89.1433022" y="6.03773585" width="24.1744548" height="14.3396226" rx="4"></rect>
            <rect x="61.1915888" y="6.03773585" width="24.1744548" height="14.3396226" rx="4"></rect>
            <rect x="33.9953271" y="6.03773585" width="24.1744548" height="14.3396226" rx="4"></rect>
        </g>
        <g id='imac' transform='translate(0, 50)'>
            <path d="M245.092913,307.055733 L455.677591,324.35408 C455.677591,324.35408 453.524619,358.607246 453.265565,367.203628 C452.988956,376.382536 446.837735,384.325669 444.910077,386.057434 C437.463753,392.747045 434.976073,392.190688 434.976073,392.190688 C434.976073,392.190688 333.450797,386.973899 267.932041,379.464749 C265.400168,379.17457 263.959218,379.464749 258.665423,378.613832 C253.371628,377.762915 253.197374,376.796788 248.92073,372.720615 C248.916942,372.717004 245.726839,368.65213 244.067218,363.992969 C242.304835,359.045319 242.351563,352.53592 242.351563,352.53592 L245.092913,307.055733 Z" fill="#D7DBDC"></path>
            <path d="M96.1350049,292.184821 L0.0492563467,20.7963272 L765.516931,109.070012 C765.516931,109.070012 602.736769,336.221598 602.736769,335.953303 C602.20499,336.221607 598.399295,338.569058 594.385181,338.569058 C593.341136,339.317435 104.865656,300.043117 104.865656,300.043117 C103.217474,299.261882 98.9747112,297.440589 96.1350049,292.184821 Z" fill="#E1E4E6"></path>
            <path d="M0.0745106807,20.809154 L765.518177,109.043413 L618.314117,314.436333 L88.0203927,269.361453 L0.0745106807,20.809154 Z" fill="#CCD4DE"></path>
            <path d="M42.9656098,39.4167997 L719.923654,117.68459 L601.23956,299.60174 L109.386164,256.481247 L42.9656098,39.4167997 Z" fill="#F2F5F7"></path>
            <path d="M1.77446069,0 L767.792136,89.2417972 L765.533069,109.047383 L0,20.824355 L1.77446069,0 Z" fill="#EDF0F2"></path>
        </g>
        <g id='notepad' transform="rotate(-8.000000) translate(550, 650)">
            <polygon fill="#B0B0B0" transform="translate(19.087211, 285.676974) scale(1, -1) translate(-19.087211, -285.676974) " points="19.0872111 282.531373 34.0288202 288.822576 4.14560193 288.822576 "></polygon>
            <polygon fill="#B0B0B0" transform="translate(19.087211, 271.521766) scale(1, -1) translate(-19.087211, -271.521766) " points="19.0872111 268.376164 34.0288202 274.667368 4.14560193 274.667368 "></polygon>
            <polygon fill="#B0B0B0" transform="translate(19.087211, 257.366557) scale(1, -1) translate(-19.087211, -257.366557) " points="19.0872111 254.220955 34.0288202 260.512159 4.14560193 260.512159 "></polygon>
            <polygon fill="#B0B0B0" transform="translate(19.087211, 243.211348) scale(1, -1) translate(-19.087211, -243.211348) " points="19.0872111 240.065746 34.0288202 246.35695 4.14560193 246.35695 "></polygon>
            <polygon fill="#B0B0B0" transform="translate(19.087211, 229.056140) scale(1, -1) translate(-19.087211, -229.056140) " points="19.0872111 225.910538 34.0288202 232.201742 4.14560193 232.201742 "></polygon>
            <polygon fill="#B0B0B0" transform="translate(19.087211, 214.900931) scale(1, -1) translate(-19.087211, -214.900931) " points="19.0872111 211.755329 34.0288202 218.046533 4.14560193 218.046533 "></polygon>
            <polygon fill="#B0B0B0" transform="translate(19.087211, 200.745722) scale(1, -1) translate(-19.087211, -200.745722) " points="19.0872111 197.60012 34.0288202 203.891324 4.14560193 203.891324 "></polygon>
            <polygon fill="#B0B0B0" transform="translate(19.087211, 186.590514) scale(1, -1) translate(-19.087211, -186.590514) " points="19.0872111 183.444912 34.0288202 189.736116 4.14560193 189.736116 "></polygon>
            <polygon fill="#B0B0B0" transform="translate(19.087211, 172.435305) scale(1, -1) translate(-19.087211, -172.435305) " points="19.0872111 169.289703 34.0288202 175.580907 4.14560193 175.580907 "></polygon>
            <polygon fill="#B0B0B0" transform="translate(19.087211, 158.280096) scale(1, -1) translate(-19.087211, -158.280096) " points="19.0872111 155.134494 34.0288202 161.425698 4.14560193 161.425698 "></polygon>
            <polygon fill="#B0B0B0" transform="translate(19.087211, 144.124888) scale(1, -1) translate(-19.087211, -144.124888) " points="19.0872111 140.979286 34.0288202 147.27049 4.14560193 147.27049 "></polygon>
            <polygon fill="#B0B0B0" transform="translate(19.087211, 129.969679) scale(1, -1) translate(-19.087211, -129.969679) " points="19.0872111 126.824077 34.0288202 133.115281 4.14560193 133.115281 "></polygon>
            <polygon fill="#B0B0B0" transform="translate(19.087211, 115.814470) scale(1, -1) translate(-19.087211, -115.814470) " points="19.0872111 112.668868 34.0288202 118.960072 4.14560193 118.960072 "></polygon>
            <polygon fill="#B0B0B0" transform="translate(19.087211, 101.659262) scale(1, -1) translate(-19.087211, -101.659262) " points="19.0872111 98.5136598 34.0288202 104.804864 4.14560193 104.804864 "></polygon>
            <polygon fill="#B0B0B0" transform="translate(19.087211, 87.504053) scale(1, -1) translate(-19.087211, -87.504053) " points="19.0872111 84.3584511 34.0288202 90.6496549 4.14560193 90.6496549 "></polygon>
            <polygon fill="#B0B0B0" transform="translate(19.087211, 73.348844) scale(1, -1) translate(-19.087211, -73.348844) " points="19.0872111 70.2032424 34.0288202 76.4944463 4.14560193 76.4944463 "></polygon>
            <polygon fill="#B0B0B0" transform="translate(19.087211, 59.193636) scale(1, -1) translate(-19.087211, -59.193636) " points="19.0872111 56.0480337 34.0288202 62.3392376 4.14560193 62.3392376 "></polygon>
            <polygon fill="#B0B0B0" transform="translate(19.087211, 45.038427) scale(1, -1) translate(-19.087211, -45.038427) " points="19.0872111 41.8928251 34.0288202 48.1840289 4.14560193 48.1840289 "></polygon>
            <polygon fill="#B0B0B0" transform="translate(19.087211, 30.883218) scale(1, -1) translate(-19.087211, -30.883218) " points="19.0872111 27.7376164 34.0288202 34.0288202 4.14560193 34.0288202 "></polygon>
            <polygon fill="#B0B0B0" transform="translate(19.087211, 16.728010) scale(1, -1) translate(-19.087211, -16.728010) " points="19.0872111 13.5824077 34.0288202 19.8736116 4.14560193 19.8736116 "></polygon>
            <rect fill="#F5F8FA" x="12.0096067" y="1" width="220.192135" height="294.11378"></rect>
            <g transform="translate(43.465626, 35.601621)" stroke="#D1D7DE" stroke-width="3" stroke-linecap="square">
                <path d="M0.786400482,228.84254 L156.493696,228.84254"></path>
                <path d="M0.786400482,200.532123 L156.493696,200.532123"></path>
                <path d="M0.786400482,172.221706 L156.493696,172.221706"></path>
                <path d="M0.786400482,143.911288 L156.493696,143.911288"></path>
                <path d="M0.786400482,115.600871 L156.493696,115.600871"></path>
                <path d="M0.786400482,87.2904535 L156.493696,87.2904535"></path>
                <path d="M0.786400482,58.9800361 L156.493696,58.9800361"></path>
                <path d="M0.786400482,30.6696188 L156.493696,30.6696188"></path>
                <path d="M0.786400482,2.35920145 L156.493696,2.35920145"></path>
            </g>
            <rect fill="#C9CDD1" x="1" y="191.308917" width="23.5920145" height="6.29120386" rx="6"></rect>
            <rect fill="#C9CDD1" x="1" y="276.240169" width="23.5920145" height="6.29120386" rx="6"></rect>
            <rect fill="#C9CDD1" x="1" y="262.08496" width="23.5920145" height="6.29120386" rx="6"></rect>
            <rect fill="#C9CDD1" x="1" y="247.929751" width="23.5920145" height="6.29120386" rx="6"></rect>
            <rect fill="#C9CDD1" x="1" y="233.774543" width="23.5920145" height="6.29120386" rx="6"></rect>
            <rect fill="#C9CDD1" x="1" y="219.619334" width="23.5920145" height="6.29120386" rx="6"></rect>
            <rect fill="#C9CDD1" x="1" y="205.464125" width="23.5920145" height="6.29120386" rx="6"></rect>
            <rect fill="#C9CDD1" x="1" y="177.153708" width="23.5920145" height="6.29120386" rx="6"></rect>
            <rect fill="#C9CDD1" x="1" y="162.998499" width="23.5920145" height="6.29120386" rx="6"></rect>
            <rect fill="#C9CDD1" x="1" y="148.843291" width="23.5920145" height="6.29120386" rx="6"></rect>
            <rect fill="#C9CDD1" x="1" y="134.688082" width="23.5920145" height="6.29120386" rx="6"></rect>
            <rect fill="#C9CDD1" x="1" y="120.532873" width="23.5920145" height="6.29120386" rx="6"></rect>
            <rect fill="#C9CDD1" x="1" y="106.377665" width="23.5920145" height="6.29120386" rx="6"></rect>
            <rect fill="#C9CDD1" x="1" y="92.2224559" width="23.5920145" height="6.29120386" rx="6"></rect>
            <rect fill="#C9CDD1" x="1" y="78.0672472" width="23.5920145" height="6.29120386" rx="6"></rect>
            <rect fill="#C9CDD1" x="1" y="63.9120386" width="23.5920145" height="6.29120386" rx="6"></rect>
            <rect fill="#C9CDD1" x="1" y="49.7568299" width="23.5920145" height="6.29120386" rx="6"></rect>
            <rect fill="#C9CDD1" x="1" y="35.6016212" width="23.5920145" height="6.29120386" rx="6"></rect>
            <rect fill="#C9CDD1" x="1" y="21.4464125" width="23.5920145" height="6.29120386" rx="6"></rect>
            <rect fill="#C9CDD1" x="1" y="7.29120386" width="23.5920145" height="6.29120386" rx="6"></rect>
        </g>
        <g id='coffee-cup' transform="translate(1000, 650)">
            <path d="M100.593962,45.3391662 C99.0857979,40.9471617 101.863553,36.2978291 106.795508,34.9553384 L145.499919,24.419898 C150.433102,23.0770728 155.657915,25.5578579 157.16301,29.9409256 L157.16301,29.9409256 C158.671174,34.3329302 155.893419,38.9822627 150.961464,40.3247534 L112.257053,50.8601938 C107.32387,52.203019 102.099057,49.7222339 100.593962,45.3391662 L100.593962,45.3391662 L100.593962,45.3391662 Z" fill="#FAFDFF"></path>
            <circle fill="#FAFDFF" cx="59.3944954" cy="59.3944954" r="59.3944954"></circle>
            <circle fill="#D0D3D7" cx="60.1100917" cy="60.1100917" r="47.2293578"></circle>
        </g>
        <g id='headphones' transform="rotate(12.000000) translate(900, 0)">
            <rect fill="#CCD4DE" transform="translate(90, 240) rotate(-22.000000) translate(-90, -240) " x="71.6444509" y="162.102608" width="39.9554426" height="150.498834" rx="8"></rect>
            <g transform="translate(1.000000, 0.000000)">
                <path d="M257.311879,209.957036 C259.982787,206.626833 262.962883,202.389379 264.533579,198.420984 C267.784239,190.208125 271.456462,166.693194 271.456462,166.693194 C271.456462,166.693194 271.955968,145.035925 270.268832,132.839565 C269.64834,128.354014 268.096455,122.285392 264.533579,116.64746 C262.197398,112.950664 252.503338,103.012985 246.104957,96.6081398 L246.104952,96.6081302 C226.094208,58.5831042 186.852129,32.7409564 141.716396,32.7409564 C92.3805426,32.7409564 50.0862497,63.6163775 32.2518569,107.528902 C29.5707417,108.88116 25.4771411,111.390513 23.211766,114.975266 C19.6488897,120.613198 18.0970045,126.68182 17.4765133,131.16737 C15.7893768,143.363731 16.2888827,165.020999 16.2888827,165.020999 C16.2888827,165.020999 19.9611064,189.017642 23.2117661,197.230501 C25.3712385,202.686453 30.1947817,208.440454 33.2161873,211.713911 L44.0639805,181.194167 L97.81257,311.626605 L68.1339238,299.426988 L68.1339238,299.426988 C67.9992973,301.542321 67.7353225,303.318362 67.7353225,303.318362 L63.5302822,306.407984 C63.5302822,306.407984 59.9673894,306.815601 59.4742194,305.753982 C54.678265,295.43 44.8304476,282.574033 38.7829103,268.497814 C31.4971609,251.539539 25.2757312,233.838327 21.0655281,221.044268 C8.13921074,199.17455 0.702506748,173.545788 0.702506748,146.144722 C0.702506748,65.9328724 64.4293834,0.908320449 143.04047,0.908320449 C221.651556,0.908320449 285.378433,65.9328724 285.378433,146.144722 C285.378433,171.568832 278.976117,195.46715 267.726811,216.252683 C265.795888,226.447431 261.381202,246.854333 253.823197,266.842077 C250.442514,275.782561 245.806443,285.741166 240.980756,293.54415 C237.729602,298.801165 233.945144,302.365013 232.092091,306.683215 C231.485396,308.09701 227.232031,306.683215 227.232031,306.683215 L224.218775,304.493102 L197.94797,316.379928 L247.11179,184.151147 L257.311879,209.957036 Z" fill="#F3F6F8"></path>
                <path d="M262.992769,114.164149 C259.20429,109.556776 251.697675,101.883925 246.427215,96.6081398 L246.42721,96.6081302 C226.416466,58.5831042 187.174387,32.7409564 142.038654,32.7409564 C92.7028007,32.7409564 50.4085078,63.6163775 32.574115,107.528902 C29.9035891,108.87582 25.8317132,111.37071 23.5609513,114.932842 C16.9629832,113.86803 10.6166437,112.786305 5.02658037,111.805614 C20.145987,48.1670279 76.3455658,0.908320449 143.362728,0.908320449 C209.461679,0.908320449 265.037442,46.8809033 281.054359,109.199155 C275.408764,111.295728 269.362415,113.03103 262.992769,114.164149 Z" fill="#CCD4DE"></path>
            </g>
            <rect fill="#CCD4DE" transform="translate(203.286620, 242.479777) scale(-1, 1) rotate(-20.000000) translate(-203.286620, -242.479777) " x="183.347695" y="167.376491" width="39.877851" height="150.206572" rx="8"></rect>
        </g>
        <g id='glasses' transform="rotate(-5.0) translate(0, 450)">
            <path d="M13.4849298,79.6036831 C10.7325045,80.1850385 5.44466079,80.5937915 3.00864664,79.6036831 C-0.286944915,78.2642028 -0.272322568,75.091731 0.403756612,73.1397696 C1.84504074,68.9785248 15.8857298,50.2179121 32.4743727,35.1472282 C41.8171473,26.6593727 61.6575532,20.4789631 61.6575532,20.4789631 L177.448175,4.25549219 C177.448175,4.25549219 193.486808,6.31487427 199.649645,9.24868669 C204.150682,11.391401 206.879731,18.2470384 206.879731,18.2470384 C206.879731,18.2470384 167.561787,22.3892577 139.373629,26.4691607 C124.253511,28.6576193 121.08209,31.2146722 110.207257,32.2385846 C101.493298,33.0590415 82.4613414,28.9158152 72.1222827,28.7337367 C70.2534764,28.7008256 64.1974569,28.8360757 59.3289091,30.3271304 C53.8635707,32.0009599 49.45423,35.2257497 45.5292881,38.7562642 C31.4815262,51.3923307 24.0483924,71.4129823 24.0483924,71.4129823 C24.0483924,71.4129823 19.4178457,78.3505581 13.4849298,79.6036831 Z" id="Rectangle-863" fill="#DCDFE0"></path>
            <path d="M15.9648209,79.6036831 C13.2123956,80.1850385 7.92455191,80.5937915 5.48853777,79.6036831 C2.19294621,78.2642028 2.20756856,75.091731 2.88364774,73.1397696 C4.32493187,68.9785248 18.3656209,50.2179121 34.9542638,35.1472282 C44.2970385,26.6593727 64.1374444,20.4789631 64.1374444,20.4789631 L179.928066,4.25549219 C179.928066,4.25549219 195.966699,6.31487427 202.129536,9.24868669 C206.630573,11.391401 209.359622,18.2470384 209.359622,18.2470384 C209.359622,18.2470384 170.041678,22.3892577 141.853521,26.4691607 C126.733402,28.6576193 123.561982,31.2146722 112.687148,32.2385846 C103.973189,33.0590415 84.9412325,28.9158152 74.6021738,28.7337367 C72.7333675,28.7008256 66.6773481,28.8360757 61.8088003,30.3271304 C56.3434618,32.0009599 51.9341211,35.2257497 48.0091792,38.7562642 C33.9614173,51.3923307 26.5282835,71.4129823 26.5282835,71.4129823 C26.5282835,71.4129823 21.8977368,78.3505581 15.9648209,79.6036831 Z" id="Rectangle-863-Copy" fill="#DCDFE0" transform="translate(105.942029, 42.229064) scale(-1, 1) translate(-105.942029, -42.229064) "></path>
            <path d="M0.0471907879,4.0804047 C0.0471907879,4.0804047 20.6887033,-1.3802864 49.5924723,1.01906218 C59.49342,1.84095585 70.9288111,3.76637597 82.2878252,6.66272801 C90.7481246,8.81995798 98.8692682,12.264495 107.869602,12.1891174 C118.922832,12.0965468 130.114384,7.49612264 142.656691,5.02083117 C155.291837,2.52721733 169.268034,2.15932056 177.719947,2.26197363 C188.969485,2.39860536 212.662096,6.66272789 212.662096,6.66272789 C212.662096,6.66272789 212.589198,8.29927877 211.720766,13.2221682 C211.352622,15.3090656 211.315055,17.9425062 210.310502,21.3637033 C210.183771,21.7953075 208.823034,21.3482562 207.886576,21.74188 C206.708492,22.2370674 205.907669,23.5778606 205.764937,24.2091538 C203.101823,35.9878588 202.920007,36.8510825 200.283736,46.0101224 C198.579322,51.9316685 195.347322,64.9080332 184.442096,68.4021267 C175.456954,71.2810146 156.42392,74.7169504 139.314461,65.9313846 C133.577572,62.9855395 127.780533,55.8153624 123.373566,47.3604678 C117.476861,36.0474691 113.313725,23.2183954 107.869602,22.6520441 C104.140559,22.2641124 100.265469,29.5371645 96.3220315,37.1577928 C92.043788,45.4254292 87.8086327,54.1558501 86.89384,55.3913128 C76.9108744,68.8736917 56.3014716,71.0190287 56.3014716,71.0190287 C56.3014716,71.0190287 48.400566,71.3810842 40.1557999,70.1716178 C32.8079168,69.0937196 25.1992675,66.5341272 22.4741617,65.0006214 C10.7865168,58.4236023 7.61695264,22.7912674 6.71797567,21.3637033 C6.40334678,20.8640767 5.77369328,19.8752477 5.0733541,19.572822 C3.7726412,19.0111383 2.25581544,19.3626413 2.25581544,19.3626413 L0.0471907879,4.0804047 Z M33.4809475,62.9993937 C45.1973914,66.5950738 53.0560113,66.3118507 59.6529568,65.0723141 C64.8236681,64.1007606 69.1314343,63.2383634 74.5012521,58.5397729 C86.7220412,47.8465824 96.458634,25.8518773 86.9102245,14.9435039 C82.5221739,9.93047069 64.0010541,7.76443243 55.6626683,6.91315495 C44.1581387,5.73864144 29.1114907,5.50444894 21.9225318,11.794788 C13.0213902,19.5832869 15.5458277,41.778835 22.7854434,54.9923169 C25.630747,60.1854609 28.7459189,61.5462524 33.4809475,62.9993937 Z M142.147129,61.1334906 C147.668573,65.4065705 162.116976,66.1935303 170.350233,66.1935303 C179.596889,66.1935303 186.474546,61.9452433 189.991359,54.9939949 C192.204524,50.6195063 193.50591,44.9340333 194.727625,39.4725554 C196.057213,33.5288445 196.758169,20.3211204 193.41089,15.9975349 C191.407079,13.4092694 188.268506,11.097357 183.181514,9.98135589 C175.655625,8.33030153 165.32389,8.57812615 159.952978,8.57812615 C152.572773,8.57812615 132.484414,12.4004413 127.573646,17.5772638 C122.459761,22.9682079 127.573646,37.198368 129.035319,41.9137432 C130.997788,48.2446929 137.565132,57.5874546 142.147129,61.1334906 Z" id="Rectangle-861" fill="#CCD4DE"></path>
        </g>
    </g>
</svg>
