<svg width="22px" height="14px" viewBox="0 0 22 14">
    <g id="UI" stroke="none" stroke-width="1" fill="none" fill-rule="evenodd">
        <g id="Mgr-New-Tickets" transform="translate(-279.000000, -148.000000)" fill="#FFFFFF">
            <g id="Fill-445" transform="translate(279.000000, 148.000000)">
                <path d="M21.84644,2.34671111 L19.57428,0.625488889 C19.39036,0.485488889 19.11228,0.504933333 18.95388,0.667488889 L11.43868,8.41493333 L3.92612,0.667488889 C3.85044,0.588933333 3.7422,0.540711111 3.62604,0.532933333 C3.509,0.524377778 3.3946,0.5586 3.30572,0.625488889 L1.03356,2.34671111 C0.84876,2.48671111 0.82764,2.73171111 0.98604,2.89504444 L11.10428,13.3304889 C11.18788,13.4168222 11.3102,13.4666 11.43868,13.4666 C11.56716,13.4666 11.68948,13.4168222 11.77308,13.3304889 L21.89396,2.89504444 C21.96964,2.81648889 22.00748,2.7146 21.99868,2.61193333 C21.98988,2.50926667 21.93532,2.4136 21.84644,2.34671111" sketch:type="MSShapeGroup"></path>
            </g>
        </g>
    </g>
</svg>
