<?xml version="1.0" encoding="UTF-8" standalone="no"?>
<svg width="25px" height="25px" viewBox="0 0 25 25" version="1.1" xmlns="http://www.w3.org/2000/svg" xmlns:xlink="http://www.w3.org/1999/xlink" xmlns:sketch="http://www.bohemiancoding.com/sketch/ns">
    <!-- Generator: Sketch 3.3.3 (12072) - http://www.bohemiancoding.com/sketch -->
    <title>Group</title>
    <desc>Created with Sketch.</desc>
    <defs></defs>
    <g id="UI" stroke="none" stroke-width="1" fill="none" fill-rule="evenodd" sketch:type="MSPage">
        <g id="Mgr-New-Tickets" sketch:type="MSArtboardGroup" transform="translate(-371.000000, -113.000000)" fill="#DFE0E1">
            <g id="Long-Ticket" sketch:type="MSLayerGroup" transform="translate(325.000000, 70.500000)">
                <g id="Group" transform="translate(46.000000, 43.000000)" sketch:type="MSShapeGroup">
                    <path d="M12.531,7.0063 C14.461,7.0063 16.031,5.4363 16.031,3.5063 C16.031,1.5763 14.461,0.0063 12.531,0.0063 C10.601,0.0063 9.031,1.5763 9.031,3.5063 C9.031,5.4363 10.601,7.0063 12.531,7.0063" id="Fill-2964"></path>
                    <path d="M10.531,14.54 L10.531,18.506 C10.531,18.783 10.755,19.006 11.031,19.006 L14.031,19.006 C14.307,19.006 14.531,18.783 14.531,18.506 L14.531,14.54 C16.483,13.606 17.531,10.804 17.531,8.506 C17.531,8.23 17.307,8.006 17.031,8.006 L8.031,8.006 C7.755,8.006 7.531,8.23 7.531,8.506 C7.531,10.804 8.579,13.606 10.531,14.54" id="Fill-2965"></path>
                    <path d="M12.531,20.5063 C8.517,20.5063 6.165,19.6853 6.03,19.2673 C6.064,19.1553 6.603,18.6653 8.61,18.3143 C8.882,18.2663 9.064,18.0073 9.017,17.7353 C8.969,17.4643 8.708,17.2813 8.438,17.3293 C6.177,17.7243 5.031,18.3733 5.031,19.2563 C5.031,21.0323 9.745,21.5063 12.531,21.5063 C15.317,21.5063 20.031,21.0323 20.031,19.2563 C20.031,18.3743 18.889,17.7263 16.637,17.3313 C16.367,17.2833 16.106,17.4643 16.058,17.7363 C16.011,18.0083 16.193,18.2683 16.465,18.3163 C18.462,18.6673 18.998,19.1553 19.032,19.2453 C18.897,19.6853 16.545,20.5063 12.531,20.5063" id="Fill-2966"></path>
                    <path d="M16.5979,15.2593 C16.3219,15.2243 16.0739,15.4173 16.0379,15.6913 C16.0029,15.9653 16.1959,16.2163 16.4699,16.2513 C21.1059,16.8503 23.5309,18.3423 23.5309,19.5063 C23.5309,21.1613 19.0139,23.0063 12.5309,23.0063 C6.0489,23.0063 1.5309,21.1613 1.5309,19.5063 C1.5309,18.3423 3.9569,16.8493 8.5949,16.2513 C8.8689,16.2163 9.0619,15.9653 9.0269,15.6913 C8.9909,15.4173 8.7419,15.2243 8.4669,15.2593 C4.6299,15.7543 0.5309,17.1303 0.5309,19.5063 C0.5309,21.6883 4.7369,24.0063 12.5309,24.0063 C20.3259,24.0063 24.5309,21.6883 24.5309,19.5063 C24.5309,17.1313 20.4329,15.7553 16.5979,15.2593" id="Fill-2967"></path>
                </g>
            </g>
        </g>
    </g>
</svg>