<?xml version="1.0" encoding="UTF-8" standalone="no"?>
<svg width="25px" height="24px" viewBox="0 0 25 24" version="1.1" xmlns="http://www.w3.org/2000/svg" xmlns:xlink="http://www.w3.org/1999/xlink" xmlns:sketch="http://www.bohemiancoding.com/sketch/ns">
    <!-- Generator: Sketch 3.3.3 (12072) - http://www.bohemiancoding.com/sketch -->
    <title>Fill 3832 + Fill 3833 + Fill 3834</title>
    <desc>Created with Sketch.</desc>
    <defs></defs>
    <g id="UI" stroke="none" stroke-width="1" fill="none" fill-rule="evenodd" sketch:type="MSPage">
        <g id="Dev-Set-Ticket-Price" sketch:type="MSArtboardGroup" transform="translate(-12.000000, -339.000000)" fill="#FFFFFF">
            <g id="Sidebar" sketch:type="MSLayerGroup">
                <g id="Fill-3832-+-Fill-3833-+-Fill-3834" transform="translate(12.000000, 339.000000)" sketch:type="MSShapeGroup">
                    <path d="M16.3728,17.6782 C16.1168,18.1902 15.6028,18.5072 15.0308,18.5072 L14.9168,18.5032 C14.2808,18.4442 13.7578,18.0092 13.5888,17.4192 L12.6478,14.1272 L11.8728,15.6782 C11.6348,16.1542 11.1568,16.4702 10.6258,16.5042 L10.5448,16.5072 L10.5438,16.5072 C10.0198,16.5072 9.5668,16.2632 9.2838,15.8402 L8.4588,14.6032 L8.2308,14.9072 C7.9508,15.2822 7.5018,15.5072 7.0308,15.5072 L4.3938,15.5072 L4.8278,16.2582 C4.8378,16.2742 4.8488,16.2902 4.8608,16.3062 C7.9638,20.4532 12.0808,23.2022 12.2548,23.3172 C12.3388,23.3732 12.4348,23.4002 12.5308,23.4002 C12.6398,23.4002 12.7478,23.3652 12.8368,23.2962 C12.9928,23.1752 16.6808,20.2992 19.7318,16.2702 L20.2048,15.5072 L17.4578,15.5072 L16.3728,17.6782 Z" id="Fill-3832"></path>
                    <path d="M2.5095,12.2578 L2.6545,12.5078 L6.2805,12.5078 L7.3315,11.1078 C7.6105,10.7328 8.0645,10.5078 8.5445,10.5078 C9.0535,10.5218 9.5105,10.7718 9.7795,11.1758 L10.3445,12.0248 L11.6895,9.3358 C11.9445,8.8248 12.4595,8.5068 13.0315,8.5068 L13.1415,8.5108 C13.7795,8.5698 14.3045,9.0048 14.4735,9.5948 L15.4395,12.9768 C15.7185,12.6808 16.1095,12.5078 16.5305,12.5078 L22.0635,12.5078 L22.2105,12.2698 C22.2205,12.2548 22.2295,12.2378 22.2375,12.2208 C23.0955,10.4068 23.5305,8.6778 23.5305,7.0808 C23.5305,2.7648 20.7175,0.5078 17.9385,0.5078 C15.8755,0.5078 13.6025,1.7658 12.5305,4.5288 C11.4765,1.8108 9.2605,0.5708 7.2505,0.5708 C3.4955,0.5708 1.5305,4.1438 1.5305,7.6728 C1.5305,9.1358 1.8495,10.6578 2.4795,12.1958 C2.4885,12.2168 2.4985,12.2378 2.5095,12.2578" id="Fill-3833"></path>
                    <path d="M24.031,13.5073 L16.531,13.5073 C16.34,13.5073 16.169,13.6133 16.084,13.7833 L15.159,15.6343 L13.512,9.8693 C13.456,9.6733 13.28,9.5283 13.074,9.5083 L13.01,9.5063 C12.84,9.5073 12.669,9.6123 12.584,9.7833 L10.469,14.0123 L8.948,11.7303 C8.856,11.5933 8.704,11.5123 8.531,11.5073 C8.382,11.5073 8.223,11.5833 8.132,11.7063 L6.781,13.5073 L1.031,13.5073 C0.755,13.5073 0.531,13.7313 0.531,14.0073 C0.531,14.2833 0.755,14.5073 1.031,14.5073 L7.031,14.5073 C7.188,14.5073 7.337,14.4323 7.43,14.3073 L8.507,12.8723 L10.115,15.2843 C10.211,15.4273 10.358,15.5073 10.53,15.5073 L10.579,15.5053 C10.739,15.4943 10.899,15.3893 10.978,15.2303 L12.903,11.3803 L14.55,17.1443 C14.605,17.3383 14.784,17.4863 14.984,17.5053 L15.037,17.5073 C15.225,17.5053 15.394,17.3993 15.478,17.2313 L16.84,14.5073 L24.031,14.5073 C24.307,14.5073 24.531,14.2833 24.531,14.0073 C24.531,13.7313 24.307,13.5073 24.031,13.5073" id="Fill-3834"></path>
                </g>
            </g>
        </g>
    </g>
</svg>