<?xml version="1.0" encoding="UTF-8" standalone="no"?>
<svg width="17px" height="24px" viewBox="0 0 17 24" version="1.1" xmlns="http://www.w3.org/2000/svg" xmlns:xlink="http://www.w3.org/1999/xlink" xmlns:sketch="http://www.bohemiancoding.com/sketch/ns">
    <!-- Generator: Sketch 3.3.2 (12043) - http://www.bohemiancoding.com/sketch -->
    <title>Fill 711</title>
    <desc>Created with Sketch.</desc>
    <defs></defs>
    <g id="Page-1" stroke="none" stroke-width="1" fill="none" fill-rule="evenodd" sketch:type="MSPage">
        <g id="Fill-711" sketch:type="MSLayerGroup" fill="#58595B">
            <path d="M10.7344,0.0498 C10.5184,-0.0472 10.2624,0.0228 10.1234,0.2158 L0.1234,14.2158 C0.0154,14.3678 0.0004,14.5688 0.0864,14.7358 C0.1714,14.9018 0.3434,15.0068 0.5304,15.0068 L7.9074,15.0068 L6.0424,23.3978 C5.9914,23.6298 6.1104,23.8658 6.3274,23.9628 C6.3934,23.9918 6.4624,24.0068 6.5304,24.0068 C6.6884,24.0068 6.8414,23.9318 6.9374,23.7968 L16.9374,9.7968 C17.0464,9.6448 17.0614,9.4448 16.9754,9.2778 C16.8894,9.1118 16.7184,9.0068 16.5304,9.0068 L9.1544,9.0068 L11.0184,0.6148 C11.0704,0.3828 10.9514,0.1468 10.7344,0.0498" sketch:type="MSShapeGroup"></path>
        </g>
    </g>
</svg>