<?xml version="1.0" encoding="UTF-8" standalone="no"?>
<svg width="59px" height="49px" viewBox="0 0 59 49" version="1.1" xmlns="http://www.w3.org/2000/svg" xmlns:xlink="http://www.w3.org/1999/xlink" xmlns:sketch="http://www.bohemiancoding.com/sketch/ns">
    <!-- Generator: Sketch 3.3.2 (12043) - http://www.bohemiancoding.com/sketch -->
    <title>Group Copy 4</title>
    <desc>Created with Sketch.</desc>
    <defs></defs>
    <g id="Welcome" stroke="none" stroke-width="1" fill="none" fill-rule="evenodd" sketch:type="MSPage">
        <g id="Desktop-HD-Copy" sketch:type="MSArtboardGroup" transform="translate(-23.000000, -23.000000)">
            <g id="Group-Copy-4" sketch:type="MSLayerGroup" transform="translate(23.000000, 23.000000)">
                <path d="M39.4328849,0.332707025 L39.4328849,14.0498069 L19.9125,25.9848489 L19.9125,11.8787876 L39.4328849,0.332707025 Z" id="Rectangle-205" fill="#8499B1" sketch:type="MSShapeGroup"></path>
                <path d="M19.9125,11.8787879 L19.9125,25.9848485 L0,38.0924593 L0,24.3753594 L19.9125,11.8787879 Z" id="Rectangle-205-Copy-5" fill="#8499B1" sketch:type="MSShapeGroup"></path>
                <path d="M39.0875,37.1212121 L39.0875,23.7575765 L19.9125,11.8787868 L19.9585938,25.4726274 L39.0875,37.1212121 Z" id="Rectangle-205-Copy-3" fill="#A1BAD6" sketch:type="MSShapeGroup"></path>
                <path d="M39.4328849,0.332707025 L39.4328849,14.0498069 L59,25.9848489 L59,11.8787876 L39.4328849,0.332707025 Z" id="Rectangle-205-Copy" fill="#8499B1" sketch:type="MSShapeGroup"></path>
                <path d="M39.0874996,37.1212121 L39.0875,23.7575761 L59,11.8787868 L59,25.9848485 C59,26.0393159 39.0874996,37.1212121 39.0874996,37.1212121 Z" id="Rectangle-205-Copy-2" fill="#A1BAD7" sketch:type="MSShapeGroup"></path>
                <path d="M58.7421396,49 L58.7421396,35.2829001 L39.0875,23.7575758 L39.0875,37.1212118 L58.7421396,49 Z" id="Rectangle-205-Copy-4" fill="#A1BAD6" sketch:type="MSShapeGroup"></path>
            </g>
        </g>
    </g>
</svg>