<?xml version="1.0" encoding="UTF-8" standalone="no"?>
<svg width="16px" height="19px" viewBox="0 0 16 19" version="1.1" xmlns="http://www.w3.org/2000/svg" xmlns:xlink="http://www.w3.org/1999/xlink" xmlns:sketch="http://www.bohemiancoding.com/sketch/ns">
    <!-- Generator: Sketch 3.3.3 (12072) - http://www.bohemiancoding.com/sketch -->
    <title>x copy</title>
    <desc>Created with Sketch.</desc>
    <defs></defs>
    <g id="UI" stroke="none" stroke-width="1" fill="none" fill-rule="evenodd" sketch:type="MSPage">
        <g id="Dev-Set-Ticket-Price" sketch:type="MSArtboardGroup" transform="translate(-554.000000, -416.000000)" fill="#A7B3C1">
            <g id="Group-Copy-4" sketch:type="MSLayerGroup" transform="translate(537.500000, 399.500000)">
                <path d="M16.5,34.672 C16.5,35.104 16.86,35.5 17.292,35.5 C17.616,35.5 17.832,35.32 18.048,35.068 L24.312,27.184 L30.612,35.14 C30.792,35.356 31.008,35.5 31.332,35.5 C31.8,35.5 32.196,35.14 32.196,34.672 C32.196,34.42 32.088,34.24 31.944,34.06 L25.464,25.96 L31.692,18.256 C31.836,18.076 31.908,17.896 31.908,17.68 C31.908,17.248 31.548,16.852 31.116,16.852 C30.792,16.852 30.576,17.032 30.36,17.284 L24.384,24.772 L18.372,17.212 C18.192,16.996 17.976,16.852 17.652,16.852 C17.184,16.852 16.788,17.212 16.788,17.68 C16.788,17.932 16.896,18.112 17.04,18.292 L23.232,25.996 L16.716,34.096 C16.572,34.276 16.5,34.456 16.5,34.672 L16.5,34.672 Z" id="x-copy" sketch:type="MSShapeGroup"></path>
            </g>
        </g>
    </g>
</svg>