<?xml version="1.0" encoding="UTF-8" standalone="no"?>
<svg width="17px" height="24px" viewBox="0 0 17 24" version="1.1" xmlns="http://www.w3.org/2000/svg" xmlns:xlink="http://www.w3.org/1999/xlink" xmlns:sketch="http://www.bohemiancoding.com/sketch/ns">
    <!-- Generator: Sketch 3.3.3 (12072) - http://www.bohemiancoding.com/sketch -->
    <title>Fill 828 Copy</title>
    <desc>Created with Sketch.</desc>
    <defs></defs>
    <g id="UI" stroke="none" stroke-width="1" fill="none" fill-rule="evenodd" sketch:type="MSPage">
        <g id="Mgr-New-Tickets" sketch:type="MSArtboardGroup" transform="translate(-47.000000, -262.000000)" fill="#FFFFFF">
            <g id="Manager-Sidebar" sketch:type="MSLayerGroup" transform="translate(0.000000, -1.000000)">
                <g id="Group" transform="translate(47.000000, 263.000000)" sketch:type="MSShapeGroup">
                    <g id="Fill-828-Copy">
                        <path d="M8.5784,21.0068 C7.1264,21.0068 5.8874,19.9678 5.6314,18.5378 C5.6014,18.3718 5.6574,18.2028 5.7794,18.0868 C5.9024,17.9708 6.0734,17.9248 6.2384,17.9638 C6.2934,17.9758 6.3534,17.9828 6.4174,17.9828 C7.0844,17.9828 8.0274,17.2998 8.5174,16.4618 C8.7334,16.0938 9.0414,15.3818 8.6874,14.7518 C8.6004,14.5968 8.6024,14.4068 8.6924,14.2548 C8.7814,14.1008 8.9464,14.0068 9.1234,14.0068 C9.6764,14.0068 10.1774,14.2208 10.5714,14.6278 C11.3644,15.4448 11.6114,16.9168 11.5784,18.0218 C11.5274,19.6958 10.2094,21.0068 8.5784,21.0068 M5.8064,0.0418 C5.5974,-0.0412 5.3594,0.0268 5.2254,0.2048 C5.0894,0.3828 5.0904,0.6308 5.2254,0.8088 C7.7114,4.0868 7.8504,9.2568 5.6324,12.2378 C5.1164,11.5188 4.7884,10.7658 4.6134,9.9068 C4.5794,9.7408 4.4644,9.6038 4.3064,9.5418 C4.1484,9.4798 3.9694,9.5018 3.8324,9.6008 C0.9994,11.6308 -0.1426,15.0878 0.9244,18.4088 C2.0174,21.8098 5.0394,24.0068 8.6234,24.0068 C12.6144,24.0068 15.3404,21.6968 16.1044,17.6688 C17.2604,11.5658 13.3984,3.0268 5.8064,0.0418" id="Fill-828"></path>
                    </g>
                </g>
            </g>
        </g>
    </g>
</svg>