<?xml version="1.0" encoding="UTF-8" standalone="no"?>
<svg width="30px" height="29px" viewBox="0 0 30 29" version="1.1" xmlns="http://www.w3.org/2000/svg" xmlns:xlink="http://www.w3.org/1999/xlink" xmlns:sketch="http://www.bohemiancoding.com/sketch/ns">
    <!-- Generator: Sketch 3.3.3 (12072) - http://www.bohemiancoding.com/sketch -->
    <title>Group</title>
    <desc>Created with Sketch.</desc>
    <defs></defs>
    <g id="UI" stroke="none" stroke-width="1" fill="none" fill-rule="evenodd" sketch:type="MSPage">
        <g id="Dev-Confirm-Ticket-Price" sketch:type="MSArtboardGroup" transform="translate(-42.000000, -258.000000)" stroke="#FFFFFF" stroke-linejoin="round">
            <g id="Sidebar-Copy" sketch:type="MSLayerGroup">
                <g id="Group" transform="translate(42.000000, 259.000000)" sketch:type="MSShapeGroup">
                    <g>
                        <path d="M5.5,25.5 L0.5,25.5 L0.5,16.5 L5.5,16.5 L5.5,25.5 Z" id="Stroke-4754"></path>
                        <path d="M5.5,24.4224 C18.65,28.8054 14.471,29.0144 29.5,21.5004 C28.169,20.1694 27.117,19.6454 25.743,20.0394 L20.26,21.8344" id="Stroke-4755" stroke-linecap="round"></path>
                        <path d="M5.5,17.5 L9.5,17.5 C12.447,17.5 14.374,18.997 15,19.493 C16.668,19.509 16.799,19.493 19,19.493 C20.986,19.493 20.986,22.5 19,22.5 L12,22.5" id="Stroke-4756" stroke-linecap="round"></path>
                        <path d="M15.5,11 L15.5,14" id="Stroke-4757" stroke-linecap="round"></path>
                        <path d="M21.5,2 L21.5,5" id="Stroke-4758" stroke-linecap="round"></path>
                        <path d="M19,12.5 C19,14.434 17.434,16 15.5,16 C13.566,16 12,14.434 12,12.5 C12,10.567 13.566,9 15.5,9 C17.434,9 19,10.567 19,12.5 L19,12.5 Z" id="Stroke-4759" stroke-linecap="round"></path>
                        <path d="M25,3.5 C25,5.434 23.434,7 21.5,7 C19.566,7 18,5.434 18,3.5 C18,1.567 19.566,0 21.5,0 C23.434,0 25,1.567 25,3.5 L25,3.5 Z" id="Stroke-4760" stroke-linecap="round"></path>
                    </g>
                </g>
            </g>
        </g>
    </g>
</svg>