<?xml version="1.0" encoding="UTF-8" standalone="no"?>
<svg width="18px" height="18px" viewBox="0 0 18 18" version="1.1" xmlns="http://www.w3.org/2000/svg" xmlns:xlink="http://www.w3.org/1999/xlink" xmlns:sketch="http://www.bohemiancoding.com/sketch/ns">
    <!-- Generator: Sketch 3.3.3 (12072) - http://www.bohemiancoding.com/sketch -->
    <title>Fill 2601</title>
    <desc>Created with Sketch.</desc>
    <defs></defs>
    <g id="UI" stroke="none" stroke-width="1" fill="none" fill-rule="evenodd" sketch:type="MSPage">
        <g id="Dev-Offered-Tickets" sketch:type="MSArtboardGroup" transform="translate(-347.000000, -21.000000)" fill="#C4C7C9">
            <g id="Fill-2601" sketch:type="MSLayerGroup" transform="translate(347.000000, 21.500000)">
                <path d="M6.862176,1.444536 C9.641376,1.444536 11.902176,3.705336 11.902176,6.484536 C11.902176,9.263736 9.641376,11.524536 6.862176,11.524536 C4.082976,11.524536 1.822176,9.263736 1.822176,6.484536 C1.822176,3.705336 4.082976,1.444536 6.862176,1.444536 M6.862176,12.964536 C8.397216,12.964536 9.806256,12.425976 10.917936,11.531016 L16.431696,17.072856 C16.572816,17.213976 16.757136,17.284536 16.942176,17.284536 C17.125776,17.284536 17.309376,17.214696 17.449776,17.075016 C17.732016,16.794216 17.732736,16.338456 17.452656,16.056936 L11.932416,10.508616 C12.812256,9.401976 13.342176,8.005176 13.342176,6.484536 C13.342176,2.911896 10.435536,0.004536 6.862176,0.004536 C3.288816,0.004536 0.382176,2.911896 0.382176,6.484536 C0.382176,10.057896 3.288816,12.964536 6.862176,12.964536" sketch:type="MSShapeGroup"></path>
            </g>
        </g>
    </g>
</svg>