<?xml version="1.0" encoding="UTF-8" standalone="no"?>
<svg width="31px" height="31px" viewBox="0 0 31 31" version="1.1" xmlns="http://www.w3.org/2000/svg" xmlns:xlink="http://www.w3.org/1999/xlink" xmlns:sketch="http://www.bohemiancoding.com/sketch/ns">
    <!-- Generator: Sketch 3.3.3 (12072) - http://www.bohemiancoding.com/sketch -->
    <title>Group</title>
    <desc>Created with Sketch.</desc>
    <defs></defs>
    <g id="UI" stroke="none" stroke-width="1" fill="none" fill-rule="evenodd" sketch:type="MSPage">
        <g id="Dev-Confirm-Ticket-Price" sketch:type="MSArtboardGroup" transform="translate(-83.000000, -628.000000)" stroke-linecap="round" stroke="#FFFFFF" stroke-linejoin="round">
            <g id="Group" sketch:type="MSLayerGroup" transform="translate(84.000000, 629.000000)">
                <path d="M29,14.5 C29,22.509 22.506,29 14.5,29 C6.4895,29 0,22.509 0,14.5 C0,6.4915 6.4895,0 14.5,0 C22.506,0 29,6.4915 29,14.5 L29,14.5 Z" id="Stroke-1063" sketch:type="MSShapeGroup"></path>
                <path d="M22.1525,22.151 L16,16" id="Stroke-1064" sketch:type="MSShapeGroup"></path>
                <path d="M16.5,14.5 C16.5,15.6045 15.602,16.5 14.5,16.5 C13.394,16.5 12.5,15.6045 12.5,14.5 C12.5,13.3955 13.394,12.5 14.5,12.5 C15.602,12.5 16.5,13.3955 16.5,14.5 L16.5,14.5 Z" id="Stroke-1065" sketch:type="MSShapeGroup"></path>
                <path d="M13.2571429,7.5 L13.2571429,12.498" id="Stroke-1066" sketch:type="MSShapeGroup"></path>
            </g>
        </g>
    </g>
</svg>