<?xml version="1.0" encoding="UTF-8" standalone="no"?>
<svg width="25px" height="22px" viewBox="0 0 25 22" version="1.1" xmlns="http://www.w3.org/2000/svg" xmlns:xlink="http://www.w3.org/1999/xlink" xmlns:sketch="http://www.bohemiancoding.com/sketch/ns">
    <!-- Generator: Sketch 3.3.3 (12072) - http://www.bohemiancoding.com/sketch -->
    <title>Group</title>
    <desc>Created with Sketch.</desc>
    <defs></defs>
    <g id="UI" stroke="none" stroke-width="1" fill="none" fill-rule="evenodd" sketch:type="MSPage">
        <g id="Mgr-New-Tickets" sketch:type="MSArtboardGroup" transform="translate(-44.000000, -321.000000)" fill="#FFFFFF">
            <g id="Manager-Sidebar" sketch:type="MSLayerGroup" transform="translate(0.000000, -1.000000)">
                <g id="cogs3-+-IN-PROGRESS" transform="translate(44.000000, 319.000000)" sketch:type="MSShapeGroup">
                    <g id="Group" transform="translate(0.000000, 3.000000)">
                        <path d="M0.5308,10.5071 C0.5308,11.5901 0.8668,12.2371 1.5308,12.4391 L1.5308,16.5071 L5.5308,16.5071 L5.5308,12.4381 C6.1938,12.2361 6.5298,11.5901 6.5308,10.5071 L6.5308,7.0071 L0.5308,7.0071 L0.5308,10.5071 Z" id="Fill-4433"></path>
                        <path d="M18.5308,7.0071 L18.5308,10.5071 C18.5308,11.5901 18.8668,12.2371 19.5308,12.4391 L19.5308,16.5071 L23.5308,16.5071 L23.5308,12.4381 C24.1938,12.2361 24.5298,11.5901 24.5308,10.5071 L24.5308,7.0071 L18.5308,7.0071 Z" id="Fill-4434"></path>
                        <path d="M8.5308,12.5071 C8.5308,13.7141 9.3908,14.7251 10.5308,14.9571 L10.5308,21.0071 L14.5308,21.0071 L14.5308,14.9571 C15.6708,14.7251 16.5308,13.7141 16.5308,12.5071 L16.5308,7.0071 L8.5308,7.0071 L8.5308,12.5071 Z" id="Fill-4435"></path>
                        <path d="M21.5308,6.0071 C22.6338,6.0071 23.5308,5.1101 23.5308,4.0071 C23.5308,2.9041 22.6338,2.0071 21.5308,2.0071 C20.4278,2.0071 19.5308,2.9041 19.5308,4.0071 C19.5308,5.1101 20.4278,6.0071 21.5308,6.0071" id="Fill-4436"></path>
                        <path d="M3.5308,6.0071 C4.6338,6.0071 5.5308,5.1101 5.5308,4.0071 C5.5308,2.9041 4.6338,2.0071 3.5308,2.0071 C2.4278,2.0071 1.5308,2.9041 1.5308,4.0071 C1.5308,5.1101 2.4278,6.0071 3.5308,6.0071" id="Fill-4437"></path>
                        <path d="M12.5308,6.0071 C14.1848,6.0071 15.5308,4.6611 15.5308,3.0071 C15.5308,1.3531 14.1848,0.0071 12.5308,0.0071 C10.8768,0.0071 9.5308,1.3531 9.5308,3.0071 C9.5308,4.6611 10.8768,6.0071 12.5308,6.0071" id="Fill-4438"></path>
                    </g>
                </g>
            </g>
        </g>
    </g>
</svg>