<?xml version="1.0" encoding="UTF-8" standalone="no"?>
<svg width="60px" height="61px" viewBox="0 0 60 61" version="1.1" xmlns="http://www.w3.org/2000/svg" xmlns:xlink="http://www.w3.org/1999/xlink" xmlns:sketch="http://www.bohemiancoding.com/sketch/ns">
    <!-- Generator: Sketch 3.3.3 (12072) - http://www.bohemiancoding.com/sketch -->
    <title>Group</title>
    <desc>Created with Sketch.</desc>
    <defs></defs>
    <g id="UI" stroke="none" stroke-width="1" fill="none" fill-rule="evenodd" sketch:type="MSPage">
        <g id="Artboard-39" sketch:type="MSArtboardGroup" transform="translate(-190.000000, -311.000000)" stroke="#364557" stroke-width="2" stroke-linejoin="round">
            <g id="Group" sketch:type="MSLayerGroup" transform="translate(191.000000, 312.000000)">
                <path d="M28.13,37.564 C28.13,41.744 24.744,45.129 20.565,45.129 C16.386,45.129 13,41.744 13,37.564 C13,33.385 16.386,30 20.565,30 C24.744,30 28.13,33.385 28.13,37.564 L28.13,37.564 Z" id="Stroke-976" sketch:type="MSShapeGroup"></path>
                <path d="M50.565,11.781 C50.565,13.873 48.87,15.564 46.782,15.564 C44.694,15.564 43,13.873 43,11.781 C43,9.693 44.694,8 46.782,8 C48.87,8 50.565,9.693 50.565,11.781 L50.565,11.781 Z" id="Stroke-977" sketch:type="MSShapeGroup"></path>
                <path d="M36.385,37.869 C36.385,36.692 36.254,35.547 36.019,34.441 L39.984,32.151 L34.941,23.414 L31.049,25.715 C29.355,24.181 27.738,22.995 25.216,22.278 L25.216,18 L15.129,18 L15.129,22.278 C12.607,22.995 10.809,24.184 9.114,25.715 L5.087,23.414 L0.021,32.151 L3.976,34.441 C3.741,35.547 3.608,36.692 3.608,37.869 C3.608,39.047 3.733,40.191 3.968,41.297 L0,43.588 L5.043,52.325 L9.115,50.025 C10.809,51.557 12.607,52.744 15.129,53.463 L15.129,58.043 L25.216,58.043 L25.216,53.463 C27.738,52.744 29.355,51.557 31.051,50.025 L34.986,52.325 L40.007,43.588 L36.032,41.297 C36.265,40.191 36.385,39.047 36.385,37.869 L36.385,37.869 Z" id="Stroke-978" sketch:type="MSShapeGroup"></path>
                <path d="M54.915,11.348 C54.915,10.645 54.824,9.962 54.669,9.307 L57.177,7.86 L54.656,3.491 L52.234,4.941 C51.245,4.002 50.051,3.293 48.79,2.892 L48.79,0 L43.747,0 L43.747,2.895 C42.485,3.293 41.113,4.002 40.123,4.941 L37.565,3.491 L35.021,7.86 L37.52,9.307 C37.364,9.962 37.269,10.645 37.269,11.348 C37.269,12.053 37.356,12.733 37.512,13.39 L35,14.838 L37.521,19.207 L40.121,17.756 C41.111,18.695 42.485,19.407 43.747,19.805 L43.747,22.697 L48.79,22.697 L48.79,19.805 C50.051,19.407 51.245,18.695 52.237,17.756 L54.7,19.207 L57.2,14.838 L54.681,13.39 C54.836,12.735 54.915,12.053 54.915,11.348 L54.915,11.348 Z" id="Stroke-979" sketch:type="MSShapeGroup"></path>
            </g>
        </g>
    </g>
</svg>